<svg width="24" height="24" viewBox="0 0 24 24" fill="none" xmlns="http://www.w3.org/2000/svg">
<path d="M22 12.0001C22 12.5524 21.5523 13.0001 21 13.0001H5.17L9.76 18.3501C10.119 18.7698 10.0697 19.4011 9.65 19.7601C9.23026 20.1191 8.59899 20.0698 8.24 19.6501L2.24 12.6501C2.20418 12.6002 2.17399 12.5466 2.15 12.4901C2.1199 12.4525 2.09313 12.4123 2.07 12.3701C2.02667 12.2514 2.00303 12.1264 2 12.0001C2.00303 11.8737 2.02667 11.7488 2.07 11.6301C2.09313 11.5878 2.1199 11.5477 2.15 11.5101C2.17399 11.4536 2.20418 11.3999 2.24 11.3501L8.24 4.35007C8.59899 3.93033 9.23026 3.88108 9.65 4.24007C10.0697 4.59905 10.119 5.23033 9.76 5.65007L5.17 11.0001H21C21.5523 11.0001 22 11.4478 22 12.0001Z" fill="currentColor"/>
</svg>
